<svg xmlns="http://www.w3.org/2000/svg" width="62" height="63">
    <path fill-rule="evenodd" fill="#FFF" d="M61.897 21.477c-.142.194-.333.339-.57.339-1.094 0-10.465.437-10.465 11.539 0 .34-.286.631-.619.631a.636.636 0 0 1-.618-.631c0-11.151-9.371-11.539-10.465-11.539h-.047a.657.657 0 0 1-.571-.339c-.095-.195-.095-.077 0-.631.048-.048.095-.145.19-.193a.535.535 0 0 1 .381-.146c1.046 0 10.465-.388 10.465-11.539 0-.34.285-.63.618-.63s.618.29.618.63c0 11.151 9.419 11.539 10.513 11.539.19.049.428.146.523.339.143.554.143.436.047.631zm-11.701-7.806c-1.38 4.606-4.757 6.594-7.421 7.467 2.664.962 6.041 2.86 7.421 7.466 1.379-4.606 4.757-6.504 7.42-7.466-2.663-.873-6.041-2.861-7.42-7.467zm-10.464-5.43h-.047c-.571 0-5.708.193-5.708 6.302 0 .34-.286.631-.571.582.324 0-.619-.291-.619-.63 0-6.109-5.089-6.303-4.997-6.303-1.044 0-1.329-.291-1.329-.63 0-.34.238-.582.859-.63h.47c-.14 0 4.997-.195 4.997-6.304 0-.339.943-.628.619-.628.333 0 .834.289.834.628 0 6.109 4.921 6.304 5.492 6.304.918 0 .619.29.619.63 0 .388.299.679-.619.679zM33.358 4.12c-.761 1.745-2.045 2.86-3.425 3.442 1.285.581 2.664 1.6 3.425 3.838.761-2.141 2.046-3.257 3.425-3.838-1.284-.582-2.664-1.6-3.425-3.442zm-5.423 15.101c.333 0 .619-1.471.619-.331 0 5.308 5.137 5.502 5.708 5.502.333 0 .618.291.618.828 0 .19-.285.48-.618.48h-.048c-.57 0-5.708.195-5.708 6.6 0 .092-.285.383-.571.286a.637.637 0 0 1-.618-.631c0-6.109-5.09-6.303-5.708-6.303-.333 0-.618-.291-.618-.432 0-.537.238-.779.57-.828h.048c.571 0 5.708-.194 5.708-5.502 0-1.14.286.331.618.331zM24.463 25.7c1.284-.048 3.327.97 3.425 2.813.761-1.745 2.045-2.861 3.425-2.813-1.033-1.211-2.664-2.229-3.425-4.072-.761 1.745-2.045 2.861-3.425 4.072zm6.476 13.893h-2.971l-2.813 23.405H5.784L2.971 39.593H0v-2.809h14.63V19.999h2.246v16.785h14.063v2.809zM8.279 60.19H22.66l1.583-13.08c-.028.3-.056.61-.084-.008-2.328 2.437-5.333 3.726-8.69 3.726-3.359 0-6.367-1.289-8.697-3.725-.026.657-.05.387-.076.117l1.583 12.97zm-2.39-20.597c1.731 5.034 4.942 8.597 9.58 8.597 5.391 0 8.384-3.563 9.971-8.597H5.889zm29.457 12.358h1.312V29.162h2.813v22.789h1.5c1.872 0 3.627.691 4.944 1.944 1.346 1.284 2.385 3.02 2.385 4.89v4.213h-3.11V60.19h-2.813v2.808h-2.812V60.19h-2.813v2.808h-2.813V60.19h-2.812v2.808h-2.813v-4.213c0-1.87 1.236-3.606 2.088-4.89 1.316-1.253 3.072-1.944 4.944-1.944zm9.589 5.43c-.585-1.545-2.118-2.622-3.964-2.622h-5.625c-1.846 0-3.38 1.077-3.965 2.622h13.554z"/>
</svg>
