<svg 
 xmlns="http://www.w3.org/2000/svg"
 xmlns:xlink="http://www.w3.org/1999/xlink"
 width="9px" height="18px">
<path fill-rule="evenodd"  fill="rgb(204, 204, 204)"
 d="M1.947,3.480 C1.947,3.934 1.947,5.961 1.947,5.961 L0.0,5.961 L0.0,8.994 L1.947,8.994 L1.947,18.10 L5.948,18.10 L5.948,8.995 L8.633,8.995 C8.633,8.995 8.885,7.541 9.7,5.950 C8.657,5.950 5.963,5.950 5.963,5.950 C5.963,5.950 5.963,4.185 5.963,3.876 C5.963,3.566 6.400,3.148 6.831,3.148 C7.261,3.148 8.170,3.148 9.11,3.148 C9.11,2.736 9.11,1.308 9.11,0.9 C7.888,0.9 6.610,0.9 6.46,0.9 C1.848,0.9 1.947,3.27 1.947,3.480 Z"/>
</svg>