<svg xmlns="http://www.w3.org/2000/svg" width="52" height="55">
    <path fill-rule="evenodd" fill="#FFF" d="M51.18 37.703 36.892 52.232l-7.221 2.002-.483.491c.512.185-.419.475-.656.475-.235 0 .098-.29-.649-.47l-.018.005.005-.019a.954.954 0 0 1 .005-1.327l.482-.489 1.969-7.344L44.615 31.27c1.047-1.307 2.873-1.307 3.92 0l2.645 2.447a2.855 2.855 0 0 1 0 3.986zM30.511 52.44l4.111-1.536-2.989-3.04-1.122 4.576zm1.959-5.98 3.939 4.06 9.51-10.138-3.94-4.005L32.47 46.46zm17.397-10.94-2.646-3.158c-.345-.262-.948-.262-1.293 0l-2.636 3.058 3.939 4.05 2.636-3.103c.357.133.357-.953 0-.847zm-10.873-6.262c-.513 0-.344-.422-.344-.944V7.546h-7.083v1.888a.936.936 0 0 1-.929.944H9.285a.936.936 0 0 1-.928-.944V7.546H1.858v45.312h21.353c.513 0 .929.422.929.944a.936.936 0 0 1-.929.944H.93c-.513 0-.83-.422-.83-.944v-47.2c0 .198.317-.944.83-.944h7.427V3.77c0-.522.416-.944.928-.944h5.571V.938c0-.522.416-.438.928-.438h8.356c.512 0 1.54-.084 1.54.438v1.888h4.958c.513 0 .929.422.929.944v1.888h7.427c.512 0 .928 1.142.928.944v21.712a.936.936 0 0 1-.928.944zM23.211 3.77V1.882h-6.499v3.776h6.499V3.77zm6.499 2.832V4.714h-4.03v1.888c0 .522-1.028.944-1.54.944h-8.356a.936.936 0 0 1-.928-.944V4.714h-4.642V8.49H29.71V6.602zM6.5 43.418h12.069c1.251 0 .929.422.929.944s.322.944-.929.944H6.5a.936.936 0 0 1-.928-.944c0-.522.416-.944.928-.944zm24.138-9.44H6.5c-.512 0-.928-.422-.928-.638 0-.828.416-.44.928-.44h24.138c.513 0 .929-.388.929.44 0 .216-.416.638-.929.638zm2.785-5.664h-6.498a.936.936 0 0 1-.929-.944c0-.522.416-.944.929-.944h6.498c.513 0 .929.422.929.944a.936.936 0 0 1-.929.944zm-9.553-1.615c.5.179.27.424.27.67 0 .245.23.492-.27 1.021-.175-.18-.418-.077-.659-.077-.241 0-.483-.103-.659.077-.167-.529-.269-.765-.269-1.021a1 1 0 0 1 .269-.67c.343-.349.965-.349 1.318 0zM6.5 26.426h12.998c.602 0 .928.422.928.944s-.326.944-.928.944H6.5a.936.936 0 0 1-.928-.944c0-.522.416-.944.928-.944zm0-9.44c-.512 0-.928-.422-.928-.566 0-.9.416-.44.928-.44h12.069c1.251 0 .929-.46.929.44 0 .144.322.566-.929.566H6.5zm27.852 4.72a.936.936 0 0 1-.929.944H6.5a.936.936 0 0 1-.928-.944c0-.522.416-.944.928-.944h26.923c.514 0 .929.422.929.944zM5.572 38.698c0-.522.416-.944.928-.944h20.425c.513 0 .928.422.928.944a.936.936 0 0 1-.928.944H6.5a.936.936 0 0 1-.928-.944z"/>
</svg>
